<?xml version="1.0" ?><!DOCTYPE svg  PUBLIC '-//W3C//DTD SVG 1.1//EN'  'http://www.w3.org/Graphics/SVG/1.1/DTD/svg11.dtd'><svg id="Layer_1" style="enable-background:new 0 0 512 512;" version="1.1" viewBox="0 0 512 512" xml:space="preserve" xmlns="http://www.w3.org/2000/svg" xmlns:xlink="http://www.w3.org/1999/xlink"><style type="text/css">
	.st0{fill:#F48FB1;}
	.st1{fill:#263238;}
	.st2{fill:#4CB6AC;}
	.st3{fill:#FFFFFF;}
</style><g><g id="XMLID_1_"><path class="st0" d="M81.7,371.5l99.6-99.6l42.8,42.8l-99.6,99.6c-12.2,12.2-32.1,11.8-43.7-1l0,0     C69.9,401.4,70.3,383,81.7,371.5z" id="XMLID_204_"/><g id="XMLID_79_"><path class="st1" d="M117.4,445.5c-11.3,0-21.9-4.4-29.8-12.4c-8-8-12.4-18.6-12.4-29.8      c0-11.3,4.4-21.9,12.4-29.8l132.2-132.2l59.7,59.7L147.2,433.1C139.2,441.1,128.6,445.5,117.4,445.5z M219.7,270.1L101.9,387.8      c-4.1,4.1-6.4,9.6-6.4,15.4c0,5.8,2.3,11.3,6.4,15.4c4.1,4.1,9.6,6.4,15.4,6.4c5.8,0,11.3-2.3,15.4-6.4L250.6,301L219.7,270.1z" id="XMLID_615_"/></g><circle class="st2" cx="290.4" cy="204.8" id="XMLID_610_" r="132.1"/><path class="st1" d="M300.6,362.3c-78.4,0-142.2-63.8-142.2-142.2c0-78.4,63.8-142.2,142.2-142.2     s142.2,63.8,142.2,142.2C442.8,298.5,379,362.3,300.6,362.3z M300.6,98.2c-67.2,0-121.9,54.7-121.9,121.9     c0,67.2,54.7,121.9,121.9,121.9s121.9-54.7,121.9-121.9C422.5,152.9,367.8,98.2,300.6,98.2z" id="XMLID_611_"/><g id="XMLID_51_"><circle class="st3" cx="299.7" cy="219.1" id="XMLID_606_" r="97.3"/><path class="st1" d="M299.7,326.6c-59.3,0-107.5-48.2-107.5-107.5s48.2-107.5,107.5-107.5      s107.5,48.2,107.5,107.5S358.9,326.6,299.7,326.6z M299.7,132c-48.1,0-87.1,39.1-87.1,87.1s39.1,87.1,87.1,87.1      s87.1-39.1,87.1-87.1S347.7,132,299.7,132z" id="XMLID_607_"/></g><g id="XMLID_97_"><line class="st3" id="XMLID_604_" x1="81.8" x2="194.2" y1="406.4" y2="294"/><rect class="st1" height="159" id="XMLID_605_" transform="matrix(0.7071 0.7071 -0.7071 0.7071 288.0463 4.9789)" width="20.4" x="127.8" y="270.7"/></g></g></g></svg>